<svg width="156" height="147" viewBox="0 0 156 147" fill="none" xmlns="http://www.w3.org/2000/svg">
<g filter="url(#filter0_d_23_8269)">
<path d="M132.812 70.4255C134.162 70.6561 135.13 71.2211 135.361 72.0974C135.649 73.1812 134.726 74.4265 133.147 75.4296C133.32 84.3194 131.29 94.3853 126.067 101.684C114.698 117.573 91.8917 125.044 70.6646 121.158C59.9992 119.198 52.8274 114.874 46.2206 106.953C38.4146 103.736 33.2597 92.0444 31.8424 86.4294C30.425 80.8144 29.2242 76.4786 29.6747 73.6193C28.0711 73.0195 26.9181 71.8665 26.3416 71.29C25.7651 70.7135 24.6121 68.4074 24.6121 65.5249C24.6121 62.6423 25.4431 62.1583 25.4431 62.1583C25.4431 62.1583 21.7295 61.4893 21.2115 55.7129C21.0501 51.8734 23.506 49.9591 23.506 49.9591C22.8373 50.4434 21.2 48.8061 20.5197 46.5925C19.8394 44.379 19.9778 43.1796 20.1046 41.4846C20.3813 37.7719 21.6719 34.3818 24.6121 32.0873C25.8379 31.1306 27.1496 30.7154 28.268 30.6808C28.4064 30.6693 29.2596 30.6462 29.3403 30.8307C28.2565 28.2018 30.8384 23.2782 34.9893 21.7101C39.8584 19.8706 43.6369 21.7101 43.6369 21.7101C43.6369 21.7101 47.7195 16.5712 56.6785 16.5217C62.9394 16.4871 67.8628 20.2575 70.5724 22.944C79.0355 20.4651 85.3887 20.3728 94.2324 21.9179C105.912 23.9587 119.357 31.6378 125.756 42.5915C127.509 45.5894 128.731 48.8294 129.25 52.2654C129.423 53.3953 129.78 55.1249 128.858 56.0358C128.835 55.9896 128.592 55.367 128.477 55.1364C128.108 54.3985 127.682 53.6951 127.232 53.0033C129.077 56.4047 130.506 60.0483 131.452 63.8878C131.452 63.9109 131.463 63.934 131.463 63.957C132.075 66.436 132.524 67.8427 132.812 70.4255Z" fill="#FEFEFE"/>
</g>
<path d="M71.8859 30.3587C71.8859 30.3587 68.2769 21.7111 57.8997 20.5581C48.0991 19.9816 44.7899 25.7468 44.7899 25.7468C44.7899 25.7468 39.0248 24.0172 36.7187 25.7468C34.4127 27.4763 33.2597 29.7823 34.4127 33.2413C34.4127 33.2413 26.7608 33.2413 25.1885 39.0065C23.6162 44.7716 25.8227 48.4381 28.6476 49.9601C28.6476 49.9601 25.0732 52.2662 25.765 55.7253C26.4568 59.1843 28.0711 60.3374 30.9536 60.9139C30.9536 60.9139 27.4946 64.3729 29.2241 67.2555C30.9536 70.138 33.3058 69.6195 35.9116 69.0776L56.7467 51.3903L71.8859 30.3587Z" fill="#EF761E"/>
<path d="M126.47 64.4069C129.26 75.8218 128.58 88.8394 121.558 98.6401C111.25 113.064 91.6026 118.91 72.3471 115.37C55.9973 112.373 42.6568 99.1243 39.9011 82.567C36.9033 64.5798 47.0153 46.4428 62.3389 37.2532C63.8955 36.3193 65.4982 35.4776 67.1585 34.7396C69.6145 33.6443 72.1627 32.7795 74.78 32.1684C97.3677 26.9337 120.982 42.0152 126.47 64.3377C126.458 64.3723 126.47 64.3838 126.47 64.4069Z" fill="#FFE1B5"/>
<path d="M121.304 45.025C115.493 35.0974 103.294 28.1217 92.7095 26.2768C72.2779 22.714 50.1745 31.3501 40.443 50.2366C33.3289 64.0498 33.5018 83.3744 43.0027 96.0692C45.9199 99.9664 50.4167 102.664 54.925 99.4245C56.8159 98.0639 57.6461 95.804 57.7499 93.5441C57.796 92.6563 57.7383 91.7684 57.623 90.8806C57.5308 90.1427 57.5308 88.5054 56.3778 88.6899C55.3631 88.8513 54.6252 90.2234 54.1755 91.0074C53.0571 92.9445 48.076 92.3565 47.8915 84.6658C47.7071 76.9752 51.9386 81.3336 53.5067 83.0862C53.5067 83.0862 56.101 86.9488 60.5978 85.5191C65.0946 84.0893 63.4343 81.4604 63.4343 81.4489C63.515 81.5757 62.8232 82.3483 62.7424 82.429C61.428 83.8933 57.9459 84.2392 57.9228 81.5527C57.9113 79.6848 59.5947 78.6701 60.8284 77.5517C61.5779 76.8829 63.0076 75.776 63.2844 74.8306C63.3536 74.5884 63.8263 72.4784 64.1837 72.513C71.6322 73.274 79.1499 71.579 85.9182 68.4889C91.5449 65.9177 97.0564 62.4471 100.861 57.4776C104.205 53.1076 105.566 47.7 106.442 42.35C106.269 43.4338 112.68 45.4631 113.66 46.0396C117.834 48.4725 121.57 52.0815 123.783 56.4053C123.899 56.6244 124.106 57.1778 124.129 57.2239C124.971 56.3938 124.637 54.8372 124.487 53.7995C124.002 50.6863 122.896 47.7461 121.304 45.025Z" fill="#EF761E"/>
<path d="M83.9856 89.2608C87.061 88.4368 89.2254 86.5422 88.82 85.0291C88.4146 83.516 85.5928 82.9574 82.5174 83.7814C79.442 84.6054 77.2776 86.5 77.683 88.0131C78.0884 89.5262 80.9102 90.0849 83.9856 89.2608Z" fill="#FFA859"/>
<path d="M125.171 78.2276C128.246 77.4036 130.411 75.509 130.005 73.9959C129.6 72.4828 126.778 71.9242 123.703 72.7482C120.627 73.5722 118.463 75.4668 118.868 76.9799C119.274 78.493 122.096 79.0517 125.171 78.2276Z" fill="#FFA859"/>
<path d="M106.694 92.1317C102.312 92.1317 99.3721 88.5342 99.2568 88.3844C99.1185 88.2229 99.0954 87.9923 99.1761 87.7963C99.2568 87.6003 99.4413 87.4619 99.6604 87.4504C99.7526 87.4389 109.265 86.5626 114.05 83.2073C114.154 83.1381 114.269 83.1035 114.384 83.1035C114.477 83.1035 114.569 83.1266 114.65 83.1727C114.846 83.2765 114.961 83.4725 114.961 83.68C114.961 83.7492 114.915 90.4252 108.55 91.9241C107.939 92.0625 107.316 92.1317 106.694 92.1317Z" fill="#F93B3B"/>
<path d="M114.373 83.6804C114.373 83.6804 114.396 89.9528 108.412 91.3595C107.824 91.4979 107.247 91.5555 106.694 91.5555C102.531 91.5555 99.7065 88.0273 99.7065 88.0273C99.7065 88.0273 109.403 87.174 114.373 83.6804ZM114.385 82.5273C114.154 82.5273 113.923 82.5965 113.727 82.7349C109.069 85.9979 99.7065 86.8742 99.6143 86.8742C99.1877 86.9088 98.8187 87.174 98.6573 87.5661C98.4959 87.9581 98.5535 88.4078 98.8187 88.7421C98.9456 88.9036 102.047 92.7085 106.705 92.7085C107.363 92.7085 108.031 92.6278 108.689 92.4779C114.131 91.1981 115.549 86.1594 115.538 83.6688C115.538 83.2422 115.295 82.8502 114.915 82.6542C114.742 82.5735 114.557 82.5273 114.385 82.5273Z" fill="#F93B3B"/>
<path d="M103.823 90.8529C103.823 90.8529 106.486 92.5132 109.542 91.0835C109.542 91.0835 111.456 90.3571 112.84 88.3047C112.828 88.3162 107.317 88.3047 103.823 90.8529Z" fill="#F6A68D"/>
<path d="M91.059 69.3828L91.7969 72.1616" stroke="#5B351F" strokeWidth="1.15302" strokeMiterlimit="10" strokeLinecap="round"/>
<path d="M87.6115 71.793L90.4248 73.142" stroke="#5B351F" strokeWidth="1.15302" strokeMiterlimit="10" strokeLinecap="round"/>
<path d="M93.4496 78.3268C95.2149 77.8539 96.2038 75.82 95.6583 73.7841C95.1128 71.7482 93.2395 70.4811 91.4742 70.9541C89.7089 71.4271 88.7201 73.461 89.2656 75.4969C89.8111 77.5328 91.6844 78.7998 93.4496 78.3268Z" fill="#5B351F"/>
<path d="M95.2445 69.752L93.4804 72.3232" stroke="#5B351F" strokeWidth="1.15302" strokeMiterlimit="10" strokeLinecap="round"/>
<path d="M87.0233 67.1242C86.4814 65.0834 87.473 63.054 89.2371 62.5813C91.0012 62.1086 92.8807 63.3769 93.4226 65.4062" stroke="#5B351F" strokeWidth="1.15302" strokeMiterlimit="10" strokeLinecap="round" strokeLinejoin="round"/>
<path d="M111.986 63.7793L112.724 66.5581" stroke="#5B351F" strokeWidth="1.15302" strokeMiterlimit="10" strokeLinecap="round"/>
<path d="M108.539 66.1895L111.352 67.5385" stroke="#5B351F" strokeWidth="1.15302" strokeMiterlimit="10" strokeLinecap="round"/>
<path d="M114.377 72.7233C116.143 72.2503 117.132 70.2165 116.586 68.1806C116.041 66.1446 114.167 64.8776 112.402 65.3506C110.637 65.8236 109.648 67.8575 110.193 69.8934C110.739 71.9293 112.612 73.1963 114.377 72.7233Z" fill="#5B351F"/>
<path d="M116.172 64.1367L114.419 66.7195" stroke="#5B351F" strokeWidth="1.15302" strokeMiterlimit="10" strokeLinecap="round"/>
<path d="M107.951 61.5207C107.409 59.4798 108.4 57.4505 110.164 56.9778C111.929 56.505 113.808 57.7734 114.35 59.8027" stroke="#5B351F" strokeWidth="1.15302" strokeMiterlimit="10" strokeLinecap="round" strokeLinejoin="round"/>
<defs>
<filter id="filter0_d_23_8269" x="0" y="0.521484" width="155.413" height="145.648" filterUnits="userSpaceOnUse" color-interpolation-filters="sRGB">
<feFlood flood-opacity="0" result="BackgroundImageFix"/>
<feColorMatrix in="SourceAlpha" type="matrix" values="0 0 0 0 0 0 0 0 0 0 0 0 0 0 0 0 0 0 127 0" result="hardAlpha"/>
<feOffset dy="4"/>
<feGaussianBlur stdDeviation="10"/>
<feComposite in2="hardAlpha" operator="out"/>
<feColorMatrix type="matrix" values="0 0 0 0 0 0 0 0 0 0 0 0 0 0 0 0 0 0 0.08 0"/>
<feBlend mode="normal" in2="BackgroundImageFix" result="effect1_dropShadow_23_8269"/>
<feBlend mode="normal" in="SourceGraphic" in2="effect1_dropShadow_23_8269" result="shape"/>
</filter>
</defs>
</svg>
